<svg viewBox="0 0 100.353 100.352" xml:space="preserve" xmlns="http://www.w3.org/2000/svg" enable-background="new 0 0 100.353 100.352"><path d="m58.23 69.992 14.993-24.108c.049-.078.09-.16.122-.245a26.697 26.697 0 0 0 3.956-13.969c0-14.772-12.018-26.79-26.79-26.79S23.72 16.898 23.72 31.67c0 4.925 1.369 9.75 3.96 13.975.03.074.065.146.107.216l14.455 24.191c-11.221 1.586-18.6 6.2-18.6 11.797 0 6.935 11.785 12.366 26.829 12.366S77.3 88.783 77.3 81.849c.001-5.623-7.722-10.34-19.07-11.857zM30.373 44.294A23.708 23.708 0 0 1 26.72 31.67c0-13.118 10.672-23.79 23.791-23.79 13.118 0 23.79 10.672 23.79 23.79 0 4.457-1.263 8.822-3.652 12.624-.05.08-.091.163-.124.249L54.685 70.01c-.238.365-.285.448-.576.926l-4 6.432-19.602-32.804a1.508 1.508 0 0 0-.134-.27zm20.099 46.921c-14.043 0-23.829-4.937-23.829-9.366 0-4.02 7.37-7.808 17.283-8.981l4.87 8.151c.269.449.751.726 1.274.73h.013c.518 0 1-.268 1.274-.708l5.12-8.232C66.548 73.9 74.3 77.784 74.3 81.849c.001 4.43-9.785 9.366-23.828 9.366z" fill="#c0c8cd" class="fill-000000"></path><path d="M60.213 31.67c0-5.371-4.37-9.741-9.741-9.741s-9.741 4.37-9.741 9.741 4.37 9.741 9.741 9.741c5.371 0 9.741-4.37 9.741-9.741zm-16.482 0c0-3.717 3.024-6.741 6.741-6.741s6.741 3.024 6.741 6.741-3.023 6.741-6.741 6.741-6.741-3.024-6.741-6.741z" fill="#c0c8cd" class="fill-000000"></path></svg>